<svg xmlns="http://www.w3.org/2000/svg" viewBox="0 0 76 68" fill="none">
    <g id="Group">
        <g id="Vector">
            <path d="M46.8298 21.2838V46.094C46.8298 46.7237 46.3208 47.1645 45.7481 47.1645H45.1755C44.5392 47.1645 44.0938 46.6607 44.0938 46.094V25.5658L33.7225 43.1974C33.5317 43.5122 33.1499 43.7641 32.7681 43.7641H32.7045C32.3227 43.7641 31.941 43.5752 31.7501 43.1974L21.2516 25.6917V46.094C21.2516 46.7237 20.7425 47.1645 20.1699 47.1645H19.6609C19.0246 47.1645 18.5792 46.6607 18.5792 46.094V21.2838C18.5792 20.6541 19.0882 20.2133 19.6609 20.2133H20.2971C20.6789 20.2133 21.0607 20.4023 21.2516 20.7801L32.7681 40.2378L44.1574 20.7801C44.3483 20.4652 44.7301 20.2133 45.1118 20.2133H45.7481C46.3208 20.2133 46.8298 20.7171 46.8298 21.2838Z" fill="#4D527E"></path>
            <path d="M64.1364 34.8224H57.901V46.094C57.901 46.7237 57.3919 47.1645 56.8193 47.1645H56.2466C55.6104 47.1645 55.165 46.6607 55.165 46.094V21.2838C55.165 20.6541 55.674 20.2133 56.2466 20.2133H56.8193C57.4556 20.2133 57.901 20.7171 57.901 21.2838V32.3036H64.1364L73.0443 20.6541C73.2352 20.4023 73.5533 20.2133 73.9351 20.2133H74.2532C75.144 20.2133 75.7166 21.2838 75.144 21.9765L66.3634 33.3111L75.7166 45.4013C76.2893 46.157 75.7803 47.1645 74.8259 47.1645H74.3168C73.9987 47.1645 73.6169 46.9756 73.426 46.7237L64.1364 34.8224Z" fill="#4D527E"></path>
            <path d="M16.8613 62.6551C11.5802 59.7585 7.44441 55.7284 4.45392 50.6278C1.52706 45.5273 0 39.797 0 33.5C0 27.203 1.52706 21.4727 4.51755 16.3722C7.50803 11.2716 11.6438 7.24154 16.9249 4.34492C22.1423 1.44831 28.0597 0 34.5497 0C39.1309 0 43.4575 0.755639 47.466 2.20395C50.9656 3.52632 54.0833 5.35244 56.692 7.7453C57.3283 8.31203 57.3283 9.25658 56.7556 9.82331C56.183 10.39 55.2922 10.39 54.7196 9.88628C49.3112 5.28947 42.6304 2.95959 34.6133 2.95959C28.7596 2.95959 23.4149 4.28195 18.6428 6.98966C13.8708 9.69737 10.1168 13.3496 7.38078 18.0094C4.6448 22.6692 3.245 27.8327 3.245 33.5C3.245 39.1673 4.6448 44.3308 7.38078 49.0536C10.1168 53.7133 13.8708 57.4286 18.6428 60.0733C23.4149 62.781 28.7596 64.1034 34.6133 64.1034C42.5667 64.1034 49.2476 61.7735 54.7196 57.0508C55.2922 56.547 56.2466 56.547 56.7556 57.1137C57.3283 57.6804 57.2647 58.625 56.692 59.1917C54.0833 61.5846 50.9656 63.4737 47.5297 64.7961C43.5211 66.3073 39.1945 67.063 34.5497 67.063C28.0597 67 22.1423 65.5517 16.8613 62.6551Z" fill="#4D527E"></path>
        </g>
    </g>
</svg>